<?xml version="1.0" encoding="iso-8859-1"?>
<!-- Uploaded to: SVG Repo, www.svgrepo.com, Generator: SVG Repo Mixer Tools -->
<svg height="800px" width="800px" version="1.1" id="Layer_1" xmlns="http://www.w3.org/2000/svg" xmlns:xlink="http://www.w3.org/1999/xlink" 
	 viewBox="0 0 503.467 503.467" xml:space="preserve">
<g transform="translate(1 1)">
	<path style="fill:#FF7474;" d="M498.2,131.267c0,34.987-14.507,67.413-37.547,90.453L341.187,341.187L160.28,160.28L279.747,40.813
		c23.04-23.04,55.467-37.547,90.453-37.547C441.027,3.267,498.2,60.44,498.2,131.267"/>
	<path style="fill:#80D6FA;" d="M341.187,341.187L222.573,459.8c-23.04,23.893-55.467,38.4-91.307,38.4
		c-70.827,0-128-57.173-128-128c0-34.987,14.507-67.413,37.547-90.453L160.28,160.28L341.187,341.187L341.187,341.187
		L341.187,341.187z"/>
</g>
<path style="fill:#51565F;" d="M132.267,503.467C59.733,503.467,0,443.733,0,371.2v-4.267c0-32.427,0-47.787,38.4-88.747
	c39.253-40.96,118.613-118.613,119.467-119.467c1.707-1.707,4.267-1.707,5.973,0l178.347,178.347
	c18.773-18.773,115.2-115.2,116.053-116.053c23.04-23.04,36.693-54.613,36.693-87.893c0-68.267-55.467-123.733-123.733-123.733
	c-33.28,0-64,12.8-87.893,35.84L187.733,140.8c-1.707,1.707-4.267,1.707-5.973,0c-1.707-1.707-1.707-4.267,0-5.973L277.333,38.4
	C302.08,13.653,335.36,0,371.2,0c72.533,0,132.267,59.733,132.267,132.267c0,34.987-13.653,68.267-38.4,93.867l0,0
	c-0.853,1.707-2.56,2.56-5.12,5.12L345.6,345.6c-0.853,0.853-1.707,0.853-3.413,0.853l0,0c-0.853,0-2.56-0.853-3.413-0.853
	L160.427,167.253c-15.36,14.507-81.92,80.213-116.053,116.907C7.68,322.56,7.68,336.214,7.68,366.934v4.267
	c0,68.267,55.467,123.733,123.733,123.733c33.28,0,64.853-12.8,87.893-37.547l95.573-94.72c1.707-1.707,4.267-1.707,5.973,0
	c1.707,1.707,1.707,4.267,0,5.973l-94.72,94.72C201.387,488.96,168.107,503.467,132.267,503.467z M59.733,401.92
	c-1.707,0-3.413-0.853-4.267-2.56c-3.413-8.533-5.12-17.92-5.12-28.16c0-9.387,1.707-17.92,4.267-27.307
	c0.853-2.56,3.413-3.413,5.12-2.56s3.413,3.413,2.56,5.12c-2.56,7.68-4.267,16.213-4.267,23.893c0,8.533,1.707,17.067,4.267,24.747
	c0.853,2.56,0,4.267-2.56,5.12C61.44,401.92,60.587,401.92,59.733,401.92z M448,136.533c-2.56,0-4.267-1.707-4.267-4.267
	c0-23.893-11.947-46.08-31.573-59.733c-1.707-1.707-2.56-4.267-0.853-5.973s4.267-2.56,5.973-0.853
	c22.187,15.36,34.987,40.107,34.987,66.56C452.267,134.827,450.56,136.533,448,136.533z"/>
</svg>